HIERARCHY
ROOT Hips
{
	OFFSET 0.000000 0.000000 0.000000
	CHANNELS 6 Xposition Yposition Zposition Zrotation Yrotation Xrotation 
	JOINT LHipJoint
	{
		OFFSET 0.000000 0.000000 0.000000
		CHANNELS 3 Zrotation Yrotation Xrotation
		JOINT LeftUpLeg
		{
			OFFSET 1.363060 -1.794630 0.839290
			CHANNELS 3 Zrotation Yrotation Xrotation
			JOINT LeftLeg
			{
				OFFSET 2.448110 -6.726130 0.000000
				CHANNELS 3 Zrotation Yrotation Xrotation
				JOINT LeftFoot
				{
					OFFSET 2.562200 -7.039590 0.000000
					CHANNELS 3 Zrotation Yrotation Xrotation
					JOINT LeftToeBase
					{
						OFFSET 0.157640 -0.433110 2.322550
						CHANNELS 3 Zrotation Yrotation Xrotation
						End Site
						{
							OFFSET 0.000000 0.000000 0.000000
						}
					}
				}
			}
		}
	}
	JOINT RHipJoint
	{
		OFFSET 0.000000 0.000000 0.000000
		CHANNELS 3 Zrotation Yrotation Xrotation
		JOINT RightUpLeg
		{
			OFFSET -1.305520 -1.794630 0.839290
			CHANNELS 3 Zrotation Yrotation Xrotation
			JOINT RightLeg
			{
				OFFSET -2.542530 -6.985550 0.000000
				CHANNELS 3 Zrotation Yrotation Xrotation
				JOINT RightFoot
				{
					OFFSET -2.568260 -7.056230 0.000000
					CHANNELS 3 Zrotation Yrotation Xrotation
					JOINT RightToeBase
					{
						OFFSET -0.164730 -0.452590 2.363150
						CHANNELS 3 Zrotation Yrotation Xrotation
						End Site
						{
							OFFSET 0.000000 0.000000 0.000000
						}
					}
				}
			}
		}
	}
}
MOTION
Frames: 30
Frame Time: 0.008333
-20.411996 15.819189 -1.687392 -85.564779 85.726272 -55.943779 -7.536648 -1.384437 3.913165 3.166204 -3.694093 -69.934791 -0.384702 2.405824 44.430752 1.503716 5.980041 -3.481982 0.924500 0.000001 -42.111400 12.439018 -2.826378 -1.879605 4.554752 -7.992470 -2.885722 1.526045 -0.835079 18.487395 -0.242297 -0.919942 4.795211 -0.437200 0.000000 -91.031200
-20.191825 15.850027 -1.731640 -72.437051 85.353777 -43.111454 -7.667092 -0.958371 3.808223 2.563598 -2.909630 -69.131408 -0.469136 2.593851 45.059270 1.507480 5.902655 -4.020746 0.831100 0.000000 -42.297200 12.457363 -2.607719 -1.989388 3.996436 -8.502718 -4.195400 1.095123 -1.073583 21.870629 -0.301557 -1.219369 7.852679 -0.535300 0.000000 -91.738700
-19.974306 15.886317 -1.774736 -62.723867 85.116552 -33.664515 -7.894863 -0.691287 3.679135 1.874317 -2.211735 -68.213644 -0.579393 2.747741 45.474758 1.498019 5.756438 -4.740337 0.713200 -0.000000 -42.575700 12.366462 -2.428641 -2.091830 3.507563 -8.982711 -5.671374 0.669216 -1.295004 25.345301 -0.453326 -1.910083 10.769402 -0.742700 -0.000000 -90.791500
-19.759424 15.927737 -1.816511 -55.934172 85.005135 -27.110275 -8.133309 -0.542690 3.524269 1.159411 -1.597863 -67.189500 -0.705903 2.851782 45.691539 1.474197 5.540460 -5.584075 0.580700 0.000000 -42.922200 12.260502 -2.272546 -2.175646 3.145200 -9.410831 -7.282834 0.279913 -1.491746 28.870550 -0.684210 -2.987859 13.375006 -1.109400 0.000000 -88.180700
-19.547225 15.974073 -1.856904 -51.588975 84.986114 -22.972309 -8.333084 -0.460460 3.353253 0.472895 -1.053578 -66.070245 -0.841489 2.904152 45.718739 1.438609 5.265047 -6.490226 0.444500 -0.000000 -43.304800 12.187115 -2.118134 -2.238483 2.942283 -9.769541 -8.996947 -0.052732 -1.660955 32.407341 -0.970305 -4.414051 15.505102 -1.658600 0.000000 -84.171800
-19.337453 16.025228 -1.895648 -49.030337 85.030311 -20.595762 -8.483723 -0.403178 3.179785 -0.158006 -0.573967 -64.862394 -0.981486 2.911007 45.555432 1.396447 4.954264 -7.397145 0.315100 0.000000 -43.685501 12.150864 -1.951598 -2.286130 2.893960 -10.055038 -10.788565 -0.322096 -1.807512 35.916377 -1.284431 -6.113752 17.034796 -2.370000 -0.000000 -79.275600
-19.130113 16.081203 -1.932572 -47.916358 85.116841 -19.638251 -8.585107 -0.349746 3.014562 -0.713319 -0.163480 -63.573169 -1.120576 2.876984 45.200122 1.352337 4.634368 -8.247112 0.200399 0.000000 -44.028600 12.148670 -1.773351 -2.323493 2.992773 -10.265721 -12.639439 -0.530969 -1.942379 39.348835 -1.604095 -7.992411 17.905391 -3.184200 0.000001 -74.094900
-18.924421 16.142010 -1.967459 -47.987200 85.232939 -19.838290 -8.643041 -0.291527 2.864855 -1.183809 0.168839 -62.208704 -1.253884 2.805787 44.649950 1.310438 4.332840 -8.992981 0.105300 0.000000 -44.306300 12.173489 -1.589308 -2.353883 3.224513 -10.400436 -14.536646 -0.688788 -2.076550 42.654760 -1.912769 -9.938142 18.124280 -4.014100 0.000000 -69.141000
-18.720358 16.207643 -2.000193 -49.277334 85.367431 -21.226305 -8.658100 -0.228487 2.733713 -1.559276 0.416539 -60.777087 -1.376414 2.698742 43.906190 1.273656 4.072274 -9.601846 0.031100 0.000000 -44.501201 12.226039 -1.408358 -2.376918 3.582718 -10.455233 -16.470028 -0.806009 -2.218661 45.785103 -2.199269 -11.835712 17.749238 -4.766300 -0.000000 -64.730600
-18.517679 16.277954 -2.030729 -51.877676 85.514539 -23.890485 -8.632843 -0.166856 2.620728 -1.838503 0.574966 -59.283553 -1.484306 2.556345 42.971213 1.243954 3.870042 -10.056762 -0.023200 -0.000000 -44.607400 12.305183 -1.240492 -2.390930 4.055754 -10.428822 -18.430804 -0.890552 -2.375059 48.695235 -2.455188 -13.574188 16.868729 -5.358399 0.000000 -60.980800
-18.315714 16.352659 -2.059051 -55.903593 85.673983 -27.944300 -8.574419 -0.118741 2.522626 -2.027443 0.642570 -57.731149 -1.574863 2.378626 41.848469 1.222226 3.736639 -10.354635 -0.060300 0.000001 -44.628100 12.404439 -1.097766 -2.393817 4.627497 -10.322595 -20.410565 -0.946268 -2.550848 51.343250 -2.673744 -15.059918 15.592165 -5.734300 0.000000 -57.888900
-18.114588 16.431248 -2.085254 -61.510844 85.847798 -33.544044 -8.497042 -0.100913 2.434037 -2.137348 0.622290 -56.120391 -1.646324 2.165888 40.545594 1.207983 3.673398 -10.504474 -0.083200 0.000001 -44.575900 12.509459 -0.995368 -2.383994 5.278030 -10.141509 -22.400212 -0.973276 -2.750909 53.694649 -2.848421 -16.218837 14.033136 -5.869300 0.000000 -55.324800
-17.913873 16.513050 -2.109488 -68.583441 86.036174 -40.577243 -8.429191 -0.127000 2.350804 -2.188393 0.525176 -54.449705 -1.699346 1.922379 39.068332 1.200119 3.676570 -10.522557 -0.094400 0.000000 -44.469400 12.589769 -0.944755 -2.361128 5.977016 -9.888630 -24.388079 -0.972567 -2.974856 55.721381 -2.974145 -17.006714 12.316634 -5.776400 0.000000 -53.214100
-17.713377 16.597225 -2.132042 -76.567324 86.227027 -48.496732 -8.404424 -0.194955 2.272554 -2.201046 0.377060 -52.718170 -1.737646 1.658818 37.422574 1.197254 3.738398 -10.429686 -0.095800 -0.000001 -44.332599 12.609158 -0.942986 -2.325587 6.691829 -9.560013 -26.358214 -0.950016 -3.211065 57.407636 -3.047765 -17.408790 10.565407 -5.498900 0.000000 -51.486400
-17.512963 16.682725 -2.153219 -84.468784 86.395916 -56.318323 -8.441442 -0.282258 2.201567 -2.186627 0.218766 -50.930470 -1.767178 1.390460 35.617973 1.197957 3.847982 -10.247373 -0.088800 -0.000000 -44.192800 12.547717 -0.967795 -2.277007 7.398897 -9.142655 -28.288901 -0.916100 -3.436869 58.752197 -3.069047 -17.439027 8.889576 -5.097700 0.000000 -50.080200
-17.312442 16.768320 -2.173428 -91.249517 86.517463 -63.013095 -8.532866 -0.359625 2.138345 -2.143693 0.094208 -49.096846 -1.793078 1.130318 33.674684 1.200007 3.988442 -9.993974 -0.074000 0.000000 -44.076300 12.414560 -0.990015 -2.212997 8.093430 -8.622030 -30.159250 -0.879674 -3.629715 59.763315 -3.041811 -17.140995 7.378537 -4.638500 -0.000000 -48.948200
-17.111756 16.852802 -2.193019 -96.240518 86.578396 -67.919972 -8.656111 -0.408237 2.079093 -2.066409 0.035841 -47.226741 -1.817706 0.884891 31.620096 1.200398 4.139783 -9.679652 -0.051800 -0.000000 -44.008300 12.236132 -0.989789 -2.130595 8.780284 -7.991833 -31.951403 -0.843908 -3.777591 60.452781 -2.973862 -16.582401 6.096389 -4.179101 0.000000 -48.055600
-16.911076 16.934875 -2.212295 -99.427327 86.578543 -71.029719 -8.793187 -0.428207 2.017221 -1.952249 0.060794 -45.333515 -1.840434 0.655509 29.492357 1.195158 4.278420 -9.308169 -0.022500 -0.000000 -44.008300 12.034401 -0.965230 -2.027849 9.466374 -7.257929 -33.659120 -0.806441 -3.881895 60.838472 -2.875937 -15.844580 5.069576 -3.759200 -0.000000 -47.359099
-16.709813 17.013302 -2.231404 -101.187121 86.528723 -72.716990 -8.935855 -0.427311 1.950003 -1.808065 0.167969 -43.439045 -1.859416 0.441768 27.332668 1.181605 4.388594 -8.877804 0.014000 -0.000000 -44.088900 11.820434 -0.923404 -1.902063 10.150106 -6.432987 -35.291872 -0.764035 -3.949926 60.945298 -2.760724 -15.013696 4.292531 -3.400800 0.000000 -46.836701
-16.508820 17.086837 -2.250433 -102.017636 86.434897 -73.495980 -9.086175 -0.419448 1.863935 -1.640213 0.379248 -41.550538 -1.874581 0.246793 25.199455 1.154276 4.437375 -8.394068 0.055401 0.000000 -44.250900 11.594763 -0.876733 -1.759832 10.832953 -5.535898 -36.833894 -0.712757 -3.991597 60.802346 -2.638658 -14.157864 3.703688 -3.100800 0.000000 -46.364900
-16.307193 17.154614 -2.269095 -102.373532 86.317557 -73.806194 -9.241618 -0.407189 1.766136 -1.466529 0.669473 -39.706353 -1.885306 0.070417 23.129418 1.114792 4.429699 -7.853777 0.101400 -0.000000 -44.492000 11.359915 -0.830190 -1.595772 11.498618 -4.580042 -38.315358 -0.651419 -4.012715 60.434917 -2.521430 -13.344792 3.257549 -2.859400 0.000001 -46.011800
-16.105457 17.215836 -2.287037 -102.594162 86.189565 -73.990699 -9.401573 -0.394192 1.653075 -1.301655 1.038309 -37.927581 -1.893565 -0.084701 21.171062 1.062690 4.355568 -7.267195 0.148999 0.000000 -44.799100 11.116656 -0.788727 -1.412660 12.134840 -3.582982 -39.737832 -0.577823 -4.018787 59.866592 -2.415467 -12.608708 2.873262 -2.661799 0.000000 -45.739200
-15.903649 17.270008 -2.303806 -102.915537 86.064346 -74.284512 -9.563289 -0.380670 1.524979 -1.159054 1.476216 -36.235119 -1.901744 -0.217246 19.361681 0.999566 4.214875 -6.648059 0.195100 -0.000001 -45.158900 10.866910 -0.754456 -1.211816 12.727532 -2.561120 -41.105145 -0.489677 -4.012706 59.109536 -2.324454 -11.964795 2.482279 -2.494800 0.000000 -45.553500
-15.701223 17.316812 -2.318588 -103.487213 85.962655 -74.829378 -9.719486 -0.362304 1.387160 -1.058952 1.957042 -34.650194 -1.912668 -0.328215 17.723341 0.929714 4.023375 -6.013764 0.237200 0.000001 -45.550301 10.616565 -0.724945 -0.992014 13.250778 -1.532523 -42.431388 -0.385105 -3.995566 58.170850 -2.248444 -11.403702 2.031331 -2.344900 0.000000 -45.465700
-15.499187 17.356124 -2.331259 -104.402943 85.882508 -75.734813 -9.870541 -0.343194 1.230470 -0.999344 2.497901 -33.169443 -1.929902 -0.415956 16.287722 0.852328 3.763701 -5.395362 0.269600 -0.000000 -45.969000 10.364823 -0.703713 -0.761704 13.706343 -0.515729 -43.687836 -0.259634 -3.967697 57.041343 -2.184031 -10.898952 1.480810 -2.198800 -0.000000 -45.427700
-15.296672 17.388060 -2.340866 -105.761713 85.848244 -77.082067 -10.006910 -0.315943 1.067980 -0.999968 3.046769 -31.801442 -1.954335 -0.486195 15.038238 0.774675 3.475051 -4.807962 0.292700 -0.000001 -46.397800 10.119869 -0.685613 -0.516274 14.061599 0.470237 -44.897478 -0.111828 -3.927144 55.710842 -2.125931 -10.411249 0.836776 -2.050000 -0.000000 -45.467000
-15.093920 17.412767 -2.347215 -107.650071 85.861742 -78.962599 -10.127710 -0.282037 0.898296 -1.059433 3.596255 -30.533236 -1.987241 -0.541307 13.970555 0.698061 3.160219 -4.275300 0.304900 0.000001 -46.838100 9.882907 -0.672073 -0.260389 14.313322 1.406243 -46.045192 0.061333 -3.871941 54.161352 -2.066465 -9.896219 0.121830 -1.894200 0.000000 -45.541900
-14.890827 17.430437 -2.350119 -110.172130 85.924856 -81.480858 -10.232933 -0.242000 0.723625 -1.175124 4.129253 -29.345655 -2.028369 -0.585176 13.061704 0.624296 2.829713 -3.811305 0.306500 -0.000000 -47.297100 9.655184 -0.664264 0.003229 14.457876 2.274150 -47.122474 0.261641 -3.799262 52.374238 -1.996888 -9.311583 -0.614431 -1.733100 0.000000 -45.615600
-14.687218 17.441320 -2.349578 -113.460710 86.036386 -84.769079 -10.325135 -0.197203 0.546286 -1.341298 4.631001 -28.216999 -2.076786 -0.621484 12.283405 0.554157 2.490104 -3.422757 0.298600 -0.000000 -47.788100 9.436542 -0.664205 0.271987 14.497676 3.057914 -48.123312 0.489500 -3.706045 50.336566 -1.908447 -8.624559 -1.307714 -1.572400 0.000000 -45.650300
-14.482779 17.445611 -2.345875 -117.710947 86.188830 -89.016518 -10.411644 -0.150230 0.371933 -1.545772 5.085185 -27.131764 -2.130081 -0.653810 11.603272 0.487859 2.146495 -3.106480 0.283400 -0.000001 -48.334100 9.222718 -0.676287 0.546636 14.443310 3.750132 -49.049890 0.743954 -3.588481 48.038564 -1.794492 -7.821805 -1.885959 -1.421500 0.000000 -45.639100
